<?xml version="1.0" standalone="no"?>
<!DOCTYPE svg PUBLIC "-//W3C//DTD SVG 20010904//EN"
 "http://www.w3.org/TR/2001/REC-SVG-20010904/DTD/svg10.dtd">
<svg version="1.0" xmlns="http://www.w3.org/2000/svg"
 width="256.000000pt" height="256.000000pt" viewBox="0 0 256.000000 256.000000"
 preserveAspectRatio="xMidYMid meet">
<metadata>
Created by potrace 1.14, written by Peter Selinger 2001-2017
</metadata>
<g transform="translate(0.000000,256.000000) scale(0.100000,-0.100000)"
fill="#000000" stroke="none">
<path d="M1588 2337 c-7 -6 -30 -26 -50 -44 -21 -18 -34 -34 -30 -36 17 -11
160 -18 166 -8 4 5 -12 30 -33 55 -32 37 -42 43 -53 33z"/>
<path d="M1353 2135 c-11 -10 -30 -26 -75 -61 -34 -27 -26 -31 75 -39 l72 -5
54 50 55 50 -32 0 c-18 0 -35 1 -39 2 -36 10 -101 12 -110 3z"/>
<path d="M1079 1903 c-50 -39 -70 -61 -62 -66 5 -3 42 -8 83 -12 l75 -6 48 41
c48 43 56 56 35 58 -7 0 -42 3 -78 7 -60 5 -68 4 -101 -22z"/>
<path d="M1870 1852 c0 -5 -6 -9 -12 -9 -7 0 -71 -29 -143 -64 -71 -35 -132
-63 -135 -64 -3 0 -27 -11 -55 -24 -27 -13 -53 -23 -57 -23 -5 1 -8 -3 -8 -10
0 -6 -3 -9 -6 -6 -3 3 -46 -14 -95 -38 -49 -24 -92 -44 -94 -44 -2 0 -60 -27
-128 -60 -69 -33 -130 -60 -136 -60 -6 0 -11 -5 -11 -12 0 -6 -3 -9 -6 -6 -3
3 -41 -12 -85 -33 -44 -21 -84 -39 -89 -39 -6 0 -10 -4 -10 -8 0 -5 -6 -9 -12
-9 -7 0 -66 -25 -131 -57 -65 -31 -125 -56 -135 -56 -9 0 -52 14 -95 30 -61
24 -82 28 -97 20 -11 -6 -20 -13 -20 -15 0 -3 14 -33 30 -67 17 -34 30 -67 30
-75 0 -7 4 -13 9 -13 5 0 11 -10 15 -23 3 -13 14 -34 26 -48 31 -37 35 -44 38
-59 2 -8 21 -53 44 -100 22 -47 40 -86 39 -87 0 -2 19 -42 43 -90 24 -49 49
-105 57 -125 7 -21 17 -38 21 -38 4 0 8 -5 8 -12 0 -6 14 -41 31 -77 17 -36
38 -82 47 -101 9 -19 21 -38 26 -42 6 -4 8 -8 3 -8 -4 0 3 -19 15 -42 12 -24
23 -45 23 -48 14 -54 35 -55 132 -9 160 76 218 103 223 104 3 1 31 13 62 28
31 15 62 27 67 27 6 0 11 4 11 9 0 5 14 12 30 16 17 4 30 10 30 14 0 4 6 8 13
8 6 0 53 20 102 44 50 24 92 44 95 44 3 1 41 19 85 40 44 22 82 40 85 40 3 1
34 15 70 32 36 17 90 42 120 56 30 14 111 52 180 84 69 33 144 68 168 78 52
23 53 36 8 129 -19 39 -44 94 -56 121 -13 28 -44 95 -70 150 -26 55 -58 123
-70 150 -13 28 -42 91 -65 140 -106 229 -109 236 -96 244 16 10 -27 94 -52 99
-9 2 -17 -1 -17 -6z m49 -261 c21 -43 17 -67 -12 -75 -12 -3 -24 -6 -27 -7 -3
-1 -14 -8 -25 -15 -35 -25 -55 -17 -76 32 -11 25 -18 51 -16 59 3 7 29 24 59
38 60 29 69 26 97 -32z m-249 -108 c17 -40 19 -96 3 -79 -4 3 -11 2 -17 -3
-22 -18 -84 -39 -95 -32 -6 4 -20 30 -31 58 l-19 51 52 25 c73 36 83 35 107
-20z m-257 -72 c4 -1 6 -4 5 -8 -1 -5 6 -25 15 -47 9 -21 14 -42 11 -48 -10
-15 -114 -59 -125 -52 -16 9 -50 94 -43 105 9 15 97 56 114 53 8 -1 18 -3 23
-3z m-237 -137 c3 -13 10 -24 14 -24 4 0 7 -15 6 -32 -1 -28 -7 -36 -46 -55
-64 -31 -77 -29 -100 17 -25 49 -25 61 0 83 11 9 20 15 20 13 0 -2 17 4 37 14
43 21 61 17 69 -16z m-236 -130 c11 -25 20 -51 20 -58 0 -15 -114 -66 -127
-57 -13 8 -33 47 -43 82 -8 26 -5 29 36 46 24 10 44 20 44 23 0 3 11 7 25 8
22 2 29 -5 45 -44z m-242 -115 c12 -25 20 -52 17 -60 -5 -15 -89 -53 -115 -54
-18 0 -65 90 -55 106 9 14 106 59 120 55 6 -1 20 -22 33 -47z m1501 -43 c23
-46 23 -48 5 -65 -11 -9 -39 -25 -63 -34 -41 -17 -45 -17 -62 -1 -10 9 -18 19
-17 23 1 3 -4 19 -10 34 -7 16 -9 33 -6 38 9 15 96 56 114 54 8 -1 26 -23 39
-49z m-253 -88 c4 -13 10 -25 15 -28 25 -16 11 -77 -18 -82 -5 -1 -22 -7 -40
-15 -49 -20 -61 -16 -83 27 -29 57 -26 72 23 96 58 30 94 30 103 2z m-236
-130 c11 -23 20 -47 20 -53 0 -13 -38 -51 -49 -49 -13 2 -41 -9 -41 -15 0 -4
-10 -7 -22 -7 -15 0 -26 12 -41 46 -12 25 -22 50 -23 57 -2 13 90 61 118 62
11 1 25 -15 38 -41z m-249 -109 c33 -67 32 -83 -11 -94 -3 0 -22 -9 -42 -19
-20 -10 -42 -15 -48 -11 -17 11 -49 85 -43 101 5 14 59 42 120 63 2 1 12 -18
24 -40z m-234 -128 c18 -36 19 -43 6 -61 -8 -11 -21 -20 -29 -20 -8 0 -14 -4
-14 -8 0 -5 -6 -9 -12 -10 -7 -1 -25 -4 -40 -8 -24 -5 -29 -1 -48 36 -14 28
-19 51 -15 67 3 14 8 23 11 20 3 -2 24 5 47 18 51 27 67 21 94 -34z m-272 -69
c21 -15 57 -112 41 -112 -2 0 -29 -11 -60 -25 l-56 -25 -18 20 c-9 12 -17 24
-17 28 0 4 -4 13 -8 19 -23 37 -16 51 41 77 64 29 63 29 77 18z"/>
<path d="M835 1695 c-16 -15 -40 -34 -53 -42 -18 -12 -20 -18 -10 -24 22 -12
160 -22 167 -11 3 5 25 26 49 45 23 20 39 38 35 40 -5 3 -42 8 -83 12 -72 6
-76 5 -105 -20z"/>
<path d="M589 1486 c-19 -17 -45 -40 -59 -49 -13 -9 -20 -18 -15 -18 6 -1 19
-3 30 -5 11 -2 39 -6 63 -8 24 -3 47 -8 51 -10 8 -5 134 94 127 101 -2 2 -35
6 -72 9 -38 3 -74 7 -80 9 -6 2 -26 -11 -45 -29z"/>
</g>
</svg>
